<svg height='300px' width='300px'  fill="#ffffff" xmlns="http://www.w3.org/2000/svg" data-name="Layer 1" viewBox="0 0 100 100" x="0px" y="0px"><title>52</title><path d="M81.30329,38.52939A14.018,14.018,0,1,0,61.477,18.70671L47.00315,33.17914a14.03037,14.03037,0,0,0,0,19.82171,4.80113,4.80113,0,0,1-6.78979,6.78987,23.64327,23.64327,0,0,1,0-33.40145L54.68721,11.91684A23.6203,23.6203,0,0,1,88.09308,45.31927L80.9238,52.48711a4.80114,4.80114,0,0,1-6.7898-6.78987ZM11.90741,88.0939a23.65053,23.65053,0,0,0,33.40586-.001L59.78664,73.62147a23.61583,23.61583,0,0,0,0-33.40145,4.80114,4.80114,0,0,0-6.78979,6.78988,14.01531,14.01531,0,0,1,0,19.82268L38.52348,81.304A14.018,14.018,0,1,1,18.6972,61.48135L25.866,54.3135a4.80114,4.80114,0,0,0-6.7898-6.78987l-7.16879,7.16785A23.64489,23.64489,0,0,0,11.90741,88.0939Z"></path></svg>